<mxfile host="Electron" agent="Mozilla/5.0 (Windows NT 10.0; Win64; x64) AppleWebKit/537.36 (KHTML, like Gecko) draw.io/24.7.17 Chrome/128.0.6613.36 Electron/32.0.1 Safari/537.36" version="24.7.17">
  <diagram name="Seite-1" id="vO7FfiEeAjm7Gf9EFJ3u">
    <mxGraphModel dx="2514" dy="993" grid="1" gridSize="10" guides="1" tooltips="1" connect="1" arrows="1" fold="1" page="1" pageScale="1" pageWidth="827" pageHeight="1169" math="0" shadow="0">
      <root>
        <mxCell id="0" />
        <mxCell id="1" parent="0" />
        <mxCell id="yWwG00e6U1pe_QzwHwr0-1" value="Raspberry Pi" style="swimlane;whiteSpace=wrap;html=1;" vertex="1" parent="1">
          <mxGeometry x="-30" y="130" width="790" height="530" as="geometry">
            <mxRectangle x="30" y="300" width="110" height="30" as="alternateBounds" />
          </mxGeometry>
        </mxCell>
        <mxCell id="yWwG00e6U1pe_QzwHwr0-2" value="" style="group" vertex="1" connectable="0" parent="yWwG00e6U1pe_QzwHwr0-1">
          <mxGeometry x="50" y="40" width="640" height="120" as="geometry" />
        </mxCell>
        <mxCell id="yWwG00e6U1pe_QzwHwr0-4" value="" style="rounded=0;whiteSpace=wrap;html=1;" vertex="1" parent="yWwG00e6U1pe_QzwHwr0-2">
          <mxGeometry x="240" y="40" width="50" height="50" as="geometry" />
        </mxCell>
        <mxCell id="yWwG00e6U1pe_QzwHwr0-5" value="" style="rounded=0;whiteSpace=wrap;html=1;" vertex="1" parent="yWwG00e6U1pe_QzwHwr0-2">
          <mxGeometry x="250" y="50" width="50" height="50" as="geometry" />
        </mxCell>
        <mxCell id="yWwG00e6U1pe_QzwHwr0-6" value="" style="rounded=0;whiteSpace=wrap;html=1;" vertex="1" parent="yWwG00e6U1pe_QzwHwr0-2">
          <mxGeometry x="260" y="60" width="50" height="50" as="geometry" />
        </mxCell>
        <mxCell id="yWwG00e6U1pe_QzwHwr0-7" value="" style="rounded=0;whiteSpace=wrap;html=1;" vertex="1" parent="yWwG00e6U1pe_QzwHwr0-2">
          <mxGeometry x="270" y="70" width="50" height="50" as="geometry" />
        </mxCell>
        <mxCell id="yWwG00e6U1pe_QzwHwr0-8" value="" style="shape=flexArrow;endArrow=classic;html=1;rounded=0;" edge="1" parent="yWwG00e6U1pe_QzwHwr0-2">
          <mxGeometry width="50" height="50" relative="1" as="geometry">
            <mxPoint x="130" y="79.5" as="sourcePoint" />
            <mxPoint x="220" y="80" as="targetPoint" />
          </mxGeometry>
        </mxCell>
        <mxCell id="yWwG00e6U1pe_QzwHwr0-9" value="Panorama image" style="text;html=1;align=center;verticalAlign=middle;resizable=0;points=[];autosize=1;strokeColor=none;fillColor=none;" vertex="1" parent="yWwG00e6U1pe_QzwHwr0-2">
          <mxGeometry x="5" y="10" width="110" height="30" as="geometry" />
        </mxCell>
        <mxCell id="yWwG00e6U1pe_QzwHwr0-10" value="Split into smaller images" style="text;html=1;align=center;verticalAlign=middle;resizable=0;points=[];autosize=1;strokeColor=none;fillColor=none;" vertex="1" parent="yWwG00e6U1pe_QzwHwr0-2">
          <mxGeometry x="190" width="150" height="30" as="geometry" />
        </mxCell>
        <mxCell id="yWwG00e6U1pe_QzwHwr0-11" value="VIT" style="shape=step;perimeter=stepPerimeter;whiteSpace=wrap;html=1;fixedSize=1;" vertex="1" parent="yWwG00e6U1pe_QzwHwr0-2">
          <mxGeometry x="520" y="40" width="120" height="80" as="geometry" />
        </mxCell>
        <mxCell id="yWwG00e6U1pe_QzwHwr0-12" value="Image embedding" style="text;html=1;align=center;verticalAlign=middle;resizable=0;points=[];autosize=1;strokeColor=none;fillColor=none;" vertex="1" parent="yWwG00e6U1pe_QzwHwr0-2">
          <mxGeometry x="520" width="120" height="30" as="geometry" />
        </mxCell>
        <mxCell id="yWwG00e6U1pe_QzwHwr0-13" value="sliding window" style="text;html=1;align=center;verticalAlign=middle;resizable=0;points=[];autosize=1;strokeColor=none;fillColor=none;" vertex="1" parent="yWwG00e6U1pe_QzwHwr0-2">
          <mxGeometry x="120" y="40" width="100" height="30" as="geometry" />
        </mxCell>
        <mxCell id="yWwG00e6U1pe_QzwHwr0-14" value="Image&lt;br&gt;Preprocessing" style="shape=step;perimeter=stepPerimeter;whiteSpace=wrap;html=1;fixedSize=1;" vertex="1" parent="yWwG00e6U1pe_QzwHwr0-2">
          <mxGeometry x="400" y="40" width="120" height="80" as="geometry" />
        </mxCell>
        <mxCell id="yWwG00e6U1pe_QzwHwr0-15" value="Resize for VIT" style="text;html=1;align=center;verticalAlign=middle;resizable=0;points=[];autosize=1;strokeColor=none;fillColor=none;" vertex="1" parent="yWwG00e6U1pe_QzwHwr0-2">
          <mxGeometry x="400" width="100" height="30" as="geometry" />
        </mxCell>
        <mxCell id="yWwG00e6U1pe_QzwHwr0-16" value="" style="shape=flexArrow;endArrow=classic;html=1;rounded=0;" edge="1" parent="yWwG00e6U1pe_QzwHwr0-2">
          <mxGeometry width="50" height="50" relative="1" as="geometry">
            <mxPoint x="330" y="79.5" as="sourcePoint" />
            <mxPoint x="400" y="79.5" as="targetPoint" />
          </mxGeometry>
        </mxCell>
        <mxCell id="yWwG00e6U1pe_QzwHwr0-24" value="" style="rounded=0;whiteSpace=wrap;html=1;" vertex="1" parent="yWwG00e6U1pe_QzwHwr0-2">
          <mxGeometry y="50" width="120" height="60" as="geometry" />
        </mxCell>
        <mxCell id="yWwG00e6U1pe_QzwHwr0-17" value="" style="shape=flexArrow;endArrow=classic;html=1;rounded=0;" edge="1" parent="yWwG00e6U1pe_QzwHwr0-1">
          <mxGeometry width="50" height="50" relative="1" as="geometry">
            <mxPoint x="700" y="120" as="sourcePoint" />
            <mxPoint x="730" y="270" as="targetPoint" />
            <Array as="points">
              <mxPoint x="730" y="120" />
            </Array>
          </mxGeometry>
        </mxCell>
        <mxCell id="yWwG00e6U1pe_QzwHwr0-18" value=".json" style="shape=note;whiteSpace=wrap;html=1;backgroundOutline=1;darkOpacity=0.05;" vertex="1" parent="yWwG00e6U1pe_QzwHwr0-1">
          <mxGeometry x="50" y="240" width="80" height="100" as="geometry" />
        </mxCell>
        <mxCell id="yWwG00e6U1pe_QzwHwr0-19" value="labels &amp;amp; text embeddings" style="text;html=1;align=center;verticalAlign=middle;resizable=0;points=[];autosize=1;strokeColor=none;fillColor=none;" vertex="1" parent="yWwG00e6U1pe_QzwHwr0-1">
          <mxGeometry x="10" y="200" width="160" height="30" as="geometry" />
        </mxCell>
        <mxCell id="yWwG00e6U1pe_QzwHwr0-20" value="Prediction" style="rounded=0;whiteSpace=wrap;html=1;" vertex="1" parent="yWwG00e6U1pe_QzwHwr0-1">
          <mxGeometry x="660" y="280" width="120" height="60" as="geometry" />
        </mxCell>
        <mxCell id="yWwG00e6U1pe_QzwHwr0-28" value="" style="shape=flexArrow;endArrow=classic;html=1;rounded=0;fillColor=default;" edge="1" parent="yWwG00e6U1pe_QzwHwr0-1">
          <mxGeometry width="50" height="50" relative="1" as="geometry">
            <mxPoint x="-100" y="300" as="sourcePoint" />
            <mxPoint x="40" y="300" as="targetPoint" />
          </mxGeometry>
        </mxCell>
        <mxCell id="yWwG00e6U1pe_QzwHwr0-29" value="(SSH)" style="text;html=1;align=center;verticalAlign=middle;resizable=0;points=[];autosize=1;strokeColor=none;fillColor=none;" vertex="1" parent="yWwG00e6U1pe_QzwHwr0-1">
          <mxGeometry x="-65" y="260" width="60" height="30" as="geometry" />
        </mxCell>
        <mxCell id="yWwG00e6U1pe_QzwHwr0-33" value="Predictions" style="shape=note;whiteSpace=wrap;html=1;backgroundOutline=1;darkOpacity=0.05;" vertex="1" parent="yWwG00e6U1pe_QzwHwr0-1">
          <mxGeometry x="680" y="410" width="80" height="100" as="geometry" />
        </mxCell>
        <mxCell id="yWwG00e6U1pe_QzwHwr0-34" value="" style="shape=flexArrow;endArrow=classic;html=1;rounded=0;" edge="1" parent="yWwG00e6U1pe_QzwHwr0-1">
          <mxGeometry width="50" height="50" relative="1" as="geometry">
            <mxPoint x="719.66" y="350" as="sourcePoint" />
            <mxPoint x="719.66" y="400" as="targetPoint" />
          </mxGeometry>
        </mxCell>
        <mxCell id="yWwG00e6U1pe_QzwHwr0-22" value="Linux PC" style="swimlane;whiteSpace=wrap;html=1;" vertex="1" parent="1">
          <mxGeometry x="-540" y="130" width="440" height="380" as="geometry" />
        </mxCell>
        <mxCell id="yWwG00e6U1pe_QzwHwr0-21" value="Dataset" style="shape=folder;fontStyle=1;spacingTop=10;tabWidth=40;tabHeight=20;tabPosition=left;html=1;whiteSpace=wrap;" vertex="1" parent="yWwG00e6U1pe_QzwHwr0-22">
          <mxGeometry x="20" y="55" width="140" height="120" as="geometry" />
        </mxCell>
        <mxCell id="yWwG00e6U1pe_QzwHwr0-27" value="&amp;nbsp; &amp;nbsp; &amp;nbsp;Text Transformer" style="shape=step;perimeter=stepPerimeter;whiteSpace=wrap;html=1;fixedSize=1;" vertex="1" parent="yWwG00e6U1pe_QzwHwr0-22">
          <mxGeometry x="260" y="260" width="120" height="80" as="geometry" />
        </mxCell>
        <mxCell id="yWwG00e6U1pe_QzwHwr0-31" value="" style="shape=flexArrow;endArrow=classic;html=1;rounded=0;" edge="1" parent="yWwG00e6U1pe_QzwHwr0-22">
          <mxGeometry width="50" height="50" relative="1" as="geometry">
            <mxPoint x="80" y="190" as="sourcePoint" />
            <mxPoint x="260" y="299.5" as="targetPoint" />
            <Array as="points">
              <mxPoint x="80" y="300" />
            </Array>
          </mxGeometry>
        </mxCell>
        <mxCell id="yWwG00e6U1pe_QzwHwr0-25" value="" style="shape=flexArrow;endArrow=classic;html=1;rounded=0;fillColor=default;" edge="1" parent="1">
          <mxGeometry width="50" height="50" relative="1" as="geometry">
            <mxPoint x="-130" y="250" as="sourcePoint" />
            <mxPoint x="10" y="250" as="targetPoint" />
          </mxGeometry>
        </mxCell>
        <mxCell id="yWwG00e6U1pe_QzwHwr0-26" value="SSH" style="text;html=1;align=center;verticalAlign=middle;resizable=0;points=[];autosize=1;strokeColor=none;fillColor=none;" vertex="1" parent="1">
          <mxGeometry x="-90" y="210" width="50" height="30" as="geometry" />
        </mxCell>
        <mxCell id="yWwG00e6U1pe_QzwHwr0-30" value="" style="shape=flexArrow;endArrow=classic;html=1;rounded=0;" edge="1" parent="1">
          <mxGeometry width="50" height="50" relative="1" as="geometry">
            <mxPoint x="-360" y="250" as="sourcePoint" />
            <mxPoint x="-160" y="250" as="targetPoint" />
          </mxGeometry>
        </mxCell>
        <mxCell id="yWwG00e6U1pe_QzwHwr0-32" value="" style="shape=flexArrow;endArrow=classic;html=1;rounded=0;" edge="1" parent="1">
          <mxGeometry width="50" height="50" relative="1" as="geometry">
            <mxPoint x="120" y="440" as="sourcePoint" />
            <mxPoint x="600" y="440" as="targetPoint" />
          </mxGeometry>
        </mxCell>
      </root>
    </mxGraphModel>
  </diagram>
</mxfile>
